<?xml version="1.0" encoding="UTF-8" standalone="no"?>
<!DOCTYPE svg PUBLIC "-//W3C//DTD SVG 1.1//EN" "http://www.w3.org/Graphics/SVG/1.1/DTD/svg11.dtd">
<svg width="100%" height="100%" viewBox="0 0 139 139" version="1.1" xmlns="http://www.w3.org/2000/svg" xmlns:xlink="http://www.w3.org/1999/xlink" xml:space="preserve" xmlns:serif="http://www.serif.com/" style="fill-rule:evenodd;clip-rule:evenodd;">
    <g>
        <path d="M129.96,67.48C129.96,100.86 102.86,127.96 69.48,127.96C36.1,127.96 9,100.86 9,67.48C9,34.1 36.1,7 69.48,7C102.86,7 129.96,34.1 129.96,67.48Z" style="fill:rgb(254,252,247);"/>
        <path d="M119.88,67.48C119.88,95.297 97.297,117.88 69.48,117.88C41.664,117.88 19.08,95.297 19.08,67.48C19.08,39.663 41.664,17.08 69.48,17.08C97.297,17.08 119.88,39.663 119.88,67.48Z" style="fill:rgb(251,245,234);"/>
        <g>
            <path d="M109.8,67.48C109.8,89.733 91.733,107.8 69.48,107.8C47.227,107.8 29.16,89.733 29.16,67.48C29.16,45.227 47.227,27.16 69.48,27.16C91.733,27.16 109.8,45.227 109.8,67.48Z" style="fill:url(#_Linear1);"/>
            <path d="M108.96,67.48C108.96,89.27 91.27,106.96 69.48,106.96C47.691,106.96 30,89.27 30,67.48C30,45.69 47.691,28 69.48,28C91.27,28 108.96,45.69 108.96,67.48Z" style="fill:none;stroke:white;stroke-width:1.68px;"/>
        </g>
        <path d="M119.04,67.48C119.04,94.833 96.833,117.04 69.48,117.04C42.127,117.04 19.92,94.833 19.92,67.48C19.92,40.127 42.127,17.92 69.48,17.92C96.833,17.92 119.04,40.127 119.04,67.48Z" style="fill:none;"/>
        <path d="M129.12,67.48C129.12,100.396 102.396,127.12 69.48,127.12C36.564,127.12 9.84,100.396 9.84,67.48C9.84,34.564 36.564,7.84 69.48,7.84C102.396,7.84 129.12,34.564 129.12,67.48Z" style="fill:none;stroke:rgb(252,252,252);stroke-opacity:0.3;stroke-width:1.68px;"/>
        <g id="groups-24.svg">
        </g>
        <g id="person-24.svg" transform="matrix(2.4749,0,0,2.4749,70.6223,65.0106)">
            <g transform="matrix(1,0,0,1,-12,-12)">
                <path d="M12,12C10.9,12 9.958,11.608 9.175,10.825C8.392,10.042 8,9.1 8,8C8,6.9 8.392,5.958 9.175,5.175C9.958,4.392 10.9,4 12,4C13.1,4 14.042,4.392 14.825,5.175C15.608,5.958 16,6.9 16,8C16,9.1 15.608,10.042 14.825,10.825C14.042,11.608 13.1,12 12,12ZM4,20L4,17.2C4,16.633 4.146,16.113 4.438,15.637C4.729,15.163 5.117,14.8 5.6,14.55C6.633,14.033 7.683,13.646 8.75,13.387C9.817,13.129 10.9,13 12,13C13.1,13 14.183,13.129 15.25,13.387C16.317,13.646 17.367,14.033 18.4,14.55C18.883,14.8 19.271,15.163 19.563,15.637C19.854,16.113 20,16.633 20,17.2L20,20L4,20ZM6,18L18,18L18,17.2C18,17.017 17.954,16.85 17.863,16.7C17.771,16.55 17.65,16.433 17.5,16.35C16.6,15.9 15.692,15.563 14.775,15.338C13.858,15.112 12.933,15 12,15C11.067,15 10.142,15.112 9.225,15.338C8.308,15.563 7.4,15.9 6.5,16.35C6.35,16.433 6.229,16.55 6.138,16.7C6.046,16.85 6,17.017 6,17.2L6,18ZM12,10C12.55,10 13.021,9.804 13.413,9.413C13.804,9.021 14,8.55 14,8C14,7.45 13.804,6.979 13.413,6.587C13.021,6.196 12.55,6 12,6C11.45,6 10.979,6.196 10.588,6.587C10.196,6.979 10,7.45 10,8C10,8.55 10.196,9.021 10.588,9.413C10.979,9.804 11.45,10 12,10Z" style="fill:rgb(255,190,60);fill-rule:nonzero;"/>
            </g>
        </g>
    </g>
    <defs>
        <linearGradient id="_Linear1" x1="0" y1="0" x2="1" y2="0" gradientUnits="userSpaceOnUse" gradientTransform="matrix(11.0489,76.3461,-76.3461,11.0489,58.4313,31.4539)"><stop offset="0" style="stop-color:white;stop-opacity:0.9"/><stop offset="1" style="stop-color:rgb(247,247,247);stop-opacity:0.9"/></linearGradient>
    </defs>
</svg>
