<?xml version="1.0" encoding="UTF-8" standalone="no"?>
<!DOCTYPE svg PUBLIC "-//W3C//DTD SVG 1.1//EN" "http://www.w3.org/Graphics/SVG/1.1/DTD/svg11.dtd">
<svg width="100%" height="100%" viewBox="0 0 139 139" version="1.1" xmlns="http://www.w3.org/2000/svg" xmlns:xlink="http://www.w3.org/1999/xlink" xml:space="preserve" xmlns:serif="http://www.serif.com/" style="fill-rule:evenodd;clip-rule:evenodd;">
    <g>
        <path d="M129.96,67.48C129.96,100.86 102.86,127.96 69.48,127.96C36.1,127.96 9,100.86 9,67.48C9,34.1 36.1,7 69.48,7C102.86,7 129.96,34.1 129.96,67.48Z" style="fill:white;fill-opacity:0.1;"/>
        <path d="M119.88,67.48C119.88,95.297 97.297,117.88 69.48,117.88C41.664,117.88 19.08,95.297 19.08,67.48C19.08,39.663 41.664,17.08 69.48,17.08C97.297,17.08 119.88,39.663 119.88,67.48Z" style="fill:white;fill-opacity:0.45;"/>
        <g>
            <path d="M109.8,67.48C109.8,89.733 91.733,107.8 69.48,107.8C47.227,107.8 29.16,89.733 29.16,67.48C29.16,45.227 47.227,27.16 69.48,27.16C91.733,27.16 109.8,45.227 109.8,67.48Z" style="fill:url(#_Linear1);"/>
            <path d="M108.96,67.48C108.96,89.27 91.27,106.96 69.48,106.96C47.691,106.96 30,89.27 30,67.48C30,45.69 47.691,28 69.48,28C91.27,28 108.96,45.69 108.96,67.48Z" style="fill:none;stroke:white;stroke-width:1.68px;"/>
        </g>
        <path d="M119.04,67.48C119.04,94.833 96.833,117.04 69.48,117.04C42.127,117.04 19.92,94.833 19.92,67.48C19.92,40.127 42.127,17.92 69.48,17.92C96.833,17.92 119.04,40.127 119.04,67.48Z" style="fill:none;stroke:rgb(252,252,252);stroke-opacity:0.6;stroke-width:1.68px;"/>
        <path d="M129.12,67.48C129.12,100.396 102.396,127.12 69.48,127.12C36.564,127.12 9.84,100.396 9.84,67.48C9.84,34.564 36.564,7.84 69.48,7.84C102.396,7.84 129.12,34.564 129.12,67.48Z" style="fill:none;stroke:rgb(252,252,252);stroke-opacity:0.3;stroke-width:1.68px;"/>
        <g id="groups-24.svg" transform="matrix(1.79192,0,0,2.12751,70.0241,65.7316)">
            <g transform="matrix(1,0,0,1,-12,-12)">
                <path d="M0,18L0,16.425C0,15.708 0.367,15.125 1.1,14.675C1.833,14.225 2.8,14 4,14C4.217,14 4.425,14.004 4.625,14.012C4.825,14.021 5.017,14.042 5.2,14.075C4.967,14.425 4.792,14.792 4.675,15.175C4.558,15.558 4.5,15.958 4.5,16.375L4.5,18L0,18ZM6,18L6,16.375C6,15.842 6.146,15.354 6.438,14.913C6.729,14.471 7.142,14.083 7.675,13.75C8.208,13.417 8.846,13.167 9.588,13C10.329,12.833 11.133,12.75 12,12.75C12.883,12.75 13.696,12.833 14.438,13C15.179,13.167 15.817,13.417 16.35,13.75C16.883,14.083 17.292,14.471 17.575,14.913C17.858,15.354 18,15.842 18,16.375L18,18L6,18ZM19.5,18L19.5,16.375C19.5,15.942 19.446,15.533 19.338,15.15C19.229,14.767 19.067,14.408 18.85,14.075C19.033,14.042 19.221,14.021 19.413,14.012C19.604,14.004 19.8,14 20,14C21.2,14 22.167,14.221 22.9,14.663C23.633,15.104 24,15.692 24,16.425L24,18L19.5,18ZM8.125,16L15.9,16C15.733,15.667 15.271,15.375 14.513,15.125C13.754,14.875 12.917,14.75 12,14.75C11.083,14.75 10.246,14.875 9.488,15.125C8.729,15.375 8.275,15.667 8.125,16ZM4,13C3.45,13 2.979,12.804 2.588,12.413C2.196,12.021 2,11.55 2,11C2,10.433 2.196,9.958 2.588,9.575C2.979,9.192 3.45,9 4,9C4.567,9 5.042,9.192 5.425,9.575C5.808,9.958 6,10.433 6,11C6,11.55 5.808,12.021 5.425,12.413C5.042,12.804 4.567,13 4,13ZM20,13C19.45,13 18.979,12.804 18.588,12.413C18.196,12.021 18,11.55 18,11C18,10.433 18.196,9.958 18.588,9.575C18.979,9.192 19.45,9 20,9C20.567,9 21.042,9.192 21.425,9.575C21.808,9.958 22,10.433 22,11C22,11.55 21.808,12.021 21.425,12.413C21.042,12.804 20.567,13 20,13ZM12,12C11.167,12 10.458,11.708 9.875,11.125C9.292,10.542 9,9.833 9,9C9,8.15 9.292,7.438 9.875,6.863C10.458,6.287 11.167,6 12,6C12.85,6 13.563,6.287 14.138,6.863C14.713,7.438 15,8.15 15,9C15,9.833 14.713,10.542 14.138,11.125C13.563,11.708 12.85,12 12,12ZM12,10C12.283,10 12.521,9.904 12.713,9.712C12.904,9.521 13,9.283 13,9C13,8.717 12.904,8.479 12.713,8.288C12.521,8.096 12.283,8 12,8C11.717,8 11.479,8.096 11.288,8.288C11.096,8.479 11,8.717 11,9C11,9.283 11.096,9.521 11.288,9.712C11.479,9.904 11.717,10 12,10Z" style="fill:rgb(255,190,60);fill-rule:nonzero;"/>
            </g>
        </g>
    </g>
    <defs>
        <linearGradient id="_Linear1" x1="0" y1="0" x2="1" y2="0" gradientUnits="userSpaceOnUse" gradientTransform="matrix(11.0489,76.3461,-76.3461,11.0489,58.4313,31.4539)"><stop offset="0" style="stop-color:white;stop-opacity:0.9"/><stop offset="1" style="stop-color:rgb(247,247,247);stop-opacity:0.9"/></linearGradient>
    </defs>
</svg>
