<?xml version="1.0" encoding="UTF-8" standalone="no"?>
<!DOCTYPE svg PUBLIC "-//W3C//DTD SVG 1.1//EN" "http://www.w3.org/Graphics/SVG/1.1/DTD/svg11.dtd">
<svg width="100%" height="100%" viewBox="0 0 39 39" version="1.1" xmlns="http://www.w3.org/2000/svg" xmlns:xlink="http://www.w3.org/1999/xlink" xml:space="preserve" xmlns:serif="http://www.serif.com/" style="fill-rule:evenodd;clip-rule:evenodd;stroke-linejoin:round;stroke-miterlimit:2;">
    <g transform="matrix(1,0,0,1,-503.649,-401.253)">
        <g transform="matrix(1.25269,0,0,1.25269,-141.914,-227.53)">
            <g transform="matrix(1.08108,0,0,1.07432,-43.6429,-34.6395)">
                <path d="M545.329,509.359L545.329,517.839C545.329,523.3 540.923,527.733 535.497,527.733L526.893,527.733C521.467,527.733 517.062,523.3 517.062,517.839L517.062,509.359C517.062,503.899 521.467,499.466 526.893,499.466L535.497,499.466C540.923,499.466 545.329,503.899 545.329,509.359Z" style="fill:white;"/>
            </g>
            <g transform="matrix(2.31623,0,0,2.31623,522.229,468.837)">
                <g transform="matrix(-0.845929,0.533296,-0.533296,-0.845929,25.875,27.7996)">
                    <path d="M16.5,22L16.5,19L13.643,19.939L15.632,16.763L17.77,16.782L19.216,16.822L16.5,22Z" style="fill:rgb(6,6,6);fill-rule:nonzero;"/>
                </g>
                <g transform="matrix(0.85143,0.532564,0.52963,-0.846738,-18.4749,27.8259)">
                    <path d="M16.5,22L16.5,19L13.643,19.939L15.632,16.763L17.77,16.782L19.216,16.822L16.5,22Z" style="fill:rgb(6,6,6);fill-rule:nonzero;"/>
                </g>
            </g>
        </g>
    </g>
</svg>
